<svg preserveAspectRatio="xMidYMid meet" xmlns="http://www.w3.org/2000/svg" xmlns:xlink="http://www.w3.org/1999/xlink" version="1.1" x="0px" y="0px" viewBox="0 0 100 100" enable-background="new 0 0 100 100" xml:space="preserve"><path d="M69.238,7.761H30.762c-3.3,0-6,2.7-6,6v72.381c0,3.3,2.7,6,6,6h38.477c3.3,0,6-2.7,6-6V13.761  C75.238,10.461,72.538,7.761,69.238,7.761z M39.714,9.786h20.572c0.276,0,0.5,0.224,0.5,0.5s-0.224,0.5-0.5,0.5H39.714  c-0.276,0-0.5-0.224-0.5-0.5S39.438,9.786,39.714,9.786z M50,89.619c-2.104,0-3.81-1.706-3.81-3.81S47.896,82,50,82  c2.104,0,3.81,1.706,3.81,3.81S52.104,89.619,50,89.619z M72.432,74.374c0,2.754-2.272,5.007-5.05,5.007H32.618  c-2.777,0-5.05-2.253-5.05-5.007V17.721c0-2.754,2.272-5.007,5.05-5.007h34.764c2.777,0,5.05,2.253,5.05,5.007V74.374z"/></svg>