<svg preserveAspectRatio="xMidYMid meet" viewBox="0 0 100 100" xmlns="http://www.w3.org/2000/svg" xmlns:xlink="http://www.w3.org/1999/xlink" version="1.1" x="0px" y="0px" viewBox="0 0 100 125" style="enable-background:new 0 0 100 100;" xml:space="preserve"><style type="text/css">
	.st0{fill-rule:evenodd;clip-rule:evenodd;}
	.st1{fill:#D8D5CA;}
</style><g><g><path d="M15.7,57.1c2.2,3.3,2.2,10.6,0,13.9l12.6,12.6c3.3-2.3,10.6-2.3,13.9,0l41.4-41.4c-2.2-3.3-2.3-10.6,0-13.9L71,15.7    c-3.3,2.2-10.6,2.2-13.9,0L15.7,57.1z M60.4,60.4c-6,6-15.6,6-21.6,0c-6-6-6-15.6,0-21.6c6-6,15.6-6,21.6,0    C66.4,44.8,66.4,54.4,60.4,60.4z"/><path d="M33,31.9L0.6,64.2l35.2,35.2l63.6-63.6L64.2,0.6L33,31.9z M94.4,35.4L44.9,84.9l-1.3,1.3L35.8,94L5.2,63.5L63.8,4.9    L94.4,35.4z"/><path d="M56.3,47.2c-0.4-0.3-0.9-0.5-1.4-0.7c-0.6-0.1-1.2-0.2-2,0c-0.8,0.1-1.7,0.5-2.7,1.1c-0.2,0.1-0.4,0.2-0.6,0.3    s-0.3,0.2-0.5,0.3l-2.9-2.9c0.4-0.4,0.9-0.5,1.4-0.5c0.6,0,1.1,0.3,1.5,0.7l2.4-2.4c-0.6-0.5-1.2-0.9-1.9-1.1    c-0.6-0.2-1.3-0.3-1.9-0.2c-0.6,0-1.2,0.2-1.8,0.5c-0.6,0.3-1.2,0.6-1.7,1.1L42.9,42l-1,1l1.3,1.3c-0.5,0.5-0.8,1.1-1.2,1.7    c-0.3,0.6-0.5,1.3-0.5,1.9c-0.1,0.6,0,1.3,0.2,1.9c0.2,0.6,0.6,1.3,1.2,1.8c0.6,0.6,1.1,0.9,1.7,1.1c0.6,0.2,1.1,0.2,1.7,0.2    c0.6-0.1,1.1-0.2,1.7-0.5c0.5-0.2,1.1-0.5,1.6-0.8c0.1-0.1,0.3-0.2,0.4-0.2c0.1-0.1,0.2-0.1,0.3-0.1l3.5,3.5    c-0.6,0.4-1.3,0.6-2,0.6c-0.7,0-1.4-0.4-2-1l-2.3,2.3c1.4,1.2,2.8,1.8,4.2,1.8c1.4,0,2.7-0.6,4.1-1.8l1.4,1.4l1-1l-1.4-1.4    c0.8-0.9,1.3-1.7,1.5-2.5c0.3-0.8,0.4-1.5,0.3-2.2s-0.2-1.3-0.4-1.7c-0.2-0.5-0.5-0.9-0.7-1.1C57,47.8,56.7,47.5,56.3,47.2z     M47.9,48.9c-0.7,0.4-1.2,0.6-1.6,0.7s-0.8-0.1-1.2-0.5c-0.2-0.2-0.4-0.5-0.5-0.7c-0.1-0.3-0.1-0.5-0.1-0.8c0-0.3,0.1-0.5,0.2-0.7    c0.1-0.2,0.3-0.4,0.5-0.6L47.9,48.9z M55.4,51.2c0.1,0.3,0.1,0.6,0.1,0.9s-0.1,0.6-0.3,0.9c-0.1,0.3-0.3,0.5-0.5,0.8l-3.2-3.2    c0.8-0.5,1.5-0.7,2-0.8c0.5-0.1,0.9,0.1,1.4,0.6C55.1,50.6,55.3,50.9,55.4,51.2z"/></g></g></svg>