<svg preserveAspectRatio="xMidYMid meet" xmlns="http://www.w3.org/2000/svg" xmlns:xlink="http://www.w3.org/1999/xlink" version="1.1" x="0px" y="0px" viewBox="0 0 100 100" style="enable-background:new 0 0 234 510;" xml:space="preserve"><path d="M196.3,417.6c-0.8-21.2-3-30.1-6.4-33.9l1-199.7c1.3-4.7,8.1-31.4,4.5-64.7c-1.8-16.8-16.2-27.8-26.7-35.8  c-3.7-2.8-7.2-5.5-8.8-7.5c-2.2-2.7-2.7-8-3.1-12.8c4.3-2.1,6.4-5.3,5.7-8.8c-0.2-1.2-0.8-2.2-1.6-3.1c-0.1-6-0.4-21.6-1.7-29.5  c-0.3-1.7-1.3-4.2-4.5-6.2c-12.1-7.7-53.8-5.6-65.7-2.3c-13.9,3.8-15.4,13.6-14.3,18.2l-0.8,18.3c-2.2,1.3-3.1,2.9-3.4,4.8  c-0.4,2.2,0.1,6,6.5,9.1c0.5,2.5,0.6,8.3-7.1,16.6c-2.6,2.8-5.3,5.4-8,7.8c-11.6,10.8-23.7,22-22.2,55c0.2,5.4,1.3,31.8,5.4,41.6  L44.6,384c-1.4,3.7-4.1,14.5-3.6,42.3c0.3,14.8-0.2,24.1-0.5,31c-0.4,8.7-0.7,13.5,1.5,18.9c6,15,15.2,18.6,21.8,18.9  c1.9,0.1,8,0.1,16.5,0.1c31.5-0.1,95.5-0.9,98.9-1c1.9,0,3.6-1.2,4.4-2.8c3.6-2.5,13.7-12.2,12.7-44  C196.4,445.7,196.8,431.9,196.3,417.6z M54.6,380.4L55,188.6c18.2-0.3,82.9-1.4,125.8-0.4l-0.9,193.3  C117.7,384.3,69.2,381.4,54.6,380.4z M84.5,28.8c0-0.2-0.1-0.5-0.2-0.7c0.3-1.4,1.7-3.7,7.1-5.1c6-1.6,19.9-2.8,32.2-2.6  c17.2,0.2,24,2.6,25.6,3.7c0.9,5.9,1.3,16.2,1.4,23c-0.4-0.1-0.8-0.1-1.1-0.2c-7.3-1.2-18.9-1.7-34.5-1.7c-14.6,0-24.5,0.6-31.2,1.6  l0.7-14.7C84.8,31.3,84.8,30.2,84.5,28.8z M68.6,95.5c2.8-2.6,5.7-5.3,8.6-8.4c6.3-6.8,9.6-13.7,9.9-20.4c0.2-5.4-1.6-8.8-2-9.4  c-0.1-0.2-0.2-0.3-0.3-0.4c4.9-0.8,13.9-1.5,30.4-1.6c19.6-0.1,29.3,0.9,34.1,1.7c-0.3,0.6-0.4,1.2-0.5,1.8c-1.4,1-2.3,2.7-2.1,4.5  l0.1,0.8c0.5,5.9,1.1,13.2,5.3,18.3c2.4,2.9,6.2,5.8,10.5,9.1c9.6,7.3,21.5,16.3,22.8,28.9c2.9,26.7-1.4,49.2-3.4,57.8  c-44.2-1.1-112.4,0.1-128.5,0.4c-2-7.4-3.4-24.4-3.8-35.8C48.3,114.4,57.3,106.1,68.6,95.5z M178,483.2c0.1-0.1,0.2-0.1,0.2-0.1  l0.5,1.1c-36.7,0.5-107.4,1.2-114.3,0.9c-2-0.1-8.2-0.5-13.1-12.7c-1.3-3.2-1.2-6.1-0.8-14.7c0.3-7,0.8-16.5,0.5-31.6  c-0.4-21.1,1.1-31.4,2.1-35.8c10,0.7,37.9,2.5,76.1,2.4c16.2,0,34.3-0.4,53.7-1.4c3,6.3,4.2,33.1,3.5,56c0,0.1,0,0.2,0,0.3  C187.4,477.2,178.1,483.2,178,483.2z"></path></svg>